# xmcd
#
# Track frame offsets:
#	150
#	11276
#	24018
#	34711
#	46456
#	56855
#	68044
#	79111
#	89365
#	99733
#	113179
#	126262
#	138798
#	149865
#
# Disc length: 2136 seconds
#
# Revision: 1
# Processed by: cddbd v1.5.2PL0 Copyright (c) Steve Scherf et al.
# Submitted via: audiograbber 1.83.01
#
DISCID=bc08560e
DTITLE=Johnny Paycheck - Jukebox Charlie
DYEAR=1967
DGENRE=Country
TTITLE0=Jukebox Charlie
TTITLE1=Touch My Heart
TTITLE2=Just Between You And Me
TTITLE3=Down At Kelly's
TTITLE4=You Can Hear A Teardrop
TTITLE5=Meanest Jukebox In Town
TTITLE6=My Baby Don't Love Me Anymore
TTITLE7=Apartment No 9
TTITLE8=Motel Time Again
TTITLE9=I Never Had The One That I Wanted
TTITLE10=Big Brother
TTITLE11=Or Is It Love
TTITLE12=Then Love Dies
TTITLE13=Malinohe
EXTD=
EXTT0=
EXTT1=
EXTT2=
EXTT3=
EXTT4=
EXTT5=
EXTT6=
EXTT7=
EXTT8=
EXTT9=
EXTT10=
EXTT11=
EXTT12=
EXTT13=
PLAYORDER=
